<svg preserveAspectRatio="none" width="100%" height="100%" overflow="visible" style="display: block;" viewBox="0 0 278 265" fill="none" xmlns="http://www.w3.org/2000/svg">
<g id="Paint Burst">
<circle id="Ellipse" cx="148" cy="135" r="46" fill="var(--fill-0, #C45C3A)" fill-opacity="0.18"/>
<rect id="Rectangle" x="208" y="126" width="44" height="18" rx="5" fill="var(--fill-0, #C45C3A)" fill-opacity="0.85"/>
<circle id="Ellipse_2" cx="205.983" cy="192.983" r="17" fill="var(--fill-0, #F0C351)" fill-opacity="0.8"/>
<rect id="Rectangle_2" x="126" y="208" width="44" height="18" rx="5" transform="rotate(-90 126 208)" fill="var(--fill-0, #75A592)" fill-opacity="0.8"/>
<circle id="Ellipse_3" cx="90.0172" cy="192.983" r="17" fill="var(--fill-0, #90B1CF)" fill-opacity="0.75"/>
<rect id="Rectangle_3" x="44" y="126" width="44" height="18" rx="5" transform="rotate(-180 44 126)" fill="var(--fill-0, #E18E8E)" fill-opacity="0.85"/>
<circle id="Ellipse_4" cx="90.0172" cy="77.0172" r="17" fill="var(--fill-0, #A070A6)" fill-opacity="0.8"/>
<rect id="Rectangle_4" x="126" y="44" width="44" height="18" rx="5" transform="rotate(-90 126 44)" fill="var(--fill-0, #F0C351)" fill-opacity="0.8"/>
<circle id="Ellipse_5" cx="205.983" cy="77.0172" r="17" fill="var(--fill-0, #75A592)" fill-opacity="0.75"/>
<circle id="Ellipse_6" cx="249.99" cy="176.207" r="4" fill="var(--fill-0, #C45C3A)" fill-opacity="0.9"/>
<circle id="Ellipse_7" cx="190.98" cy="236.256" r="5.5" fill="var(--fill-0, #F0C351)" fill-opacity="0.9"/>
<circle id="Ellipse_8" cx="106.793" cy="236.99" r="7" fill="var(--fill-0, #75A592)" fill-opacity="0.9"/>
<circle id="Ellipse_9" cx="46.7445" cy="177.98" r="4" fill="var(--fill-0, #90B1CF)" fill-opacity="0.9"/>
<circle id="Ellipse_10" cx="46.0098" cy="93.7933" r="5.5" fill="var(--fill-0, #E18E8E)" fill-opacity="0.9"/>
<circle id="Ellipse_11" cx="105.02" cy="33.7445" r="7" fill="var(--fill-0, #A070A6)" fill-opacity="0.9"/>
<circle id="Ellipse_12" cx="189.207" cy="33.0098" r="4" fill="var(--fill-0, #C45C3A)" fill-opacity="0.9"/>
<circle id="Ellipse_13" cx="249.256" cy="92.0196" r="5.5" fill="var(--fill-0, #F0C351)" fill-opacity="0.9"/>
</g>
</svg>
